<?xml version="1.0" encoding="utf-8"?>
<!-- Svg Vector Icons : http://www.onlinewebfonts.com/icon -->
<!DOCTYPE svg PUBLIC "-//W3C//DTD SVG 1.1//EN" "http://www.w3.org/Graphics/SVG/1.1/DTD/svg11.dtd">
<svg version="1.1" xmlns="http://www.w3.org/2000/svg" xmlns:xlink="http://www.w3.org/1999/xlink" x="0px" y="0px" viewBox="0 0 1000 1000" enable-background="new 0 0 1000 1000" xml:space="preserve">
<metadata> Svg Vector Icons : http://www.onlinewebfonts.com/icon </metadata>
<g><g transform="translate(0.000000,511.000000) scale(0.100000,-0.100000)"><path d="M4642,4994.7c-653-102-1334.2-548.9-1742.1-1145.5c-373.2-544.5-553.2-1130.3-553.2-1794.2c0-826.6,308.1-1596.7,867.8-2167.3c145.3-147.5,405.7-360.1,538-438.2c32.5-17.4-232.1-167.1-1579.4-887.3c-1614.1-859.1-1622.8-863.4-1759.4-1011c-156.2-164.9-256-351.5-295.1-551.1c-15.2-84.6-21.7-316.7-17.3-650.8c6.5-488.1,8.7-527.2,56.4-627c104.1-227.8,297.2-399.2,529.4-472.9c123.7-36.9,305.9-39.1,4312.9-39.1c4007,0,4189.2,2.2,4312.9,39.1c232.1,73.8,425.2,245.1,529.4,472.9c47.7,99.8,49.9,138.9,56.4,627c4.3,334.1-2.2,566.2-17.3,650.8c-39.1,203.9-138.9,388.3-301.6,555.4c-156.2,162.7,82.5,26-2655.4,1514.3l-687.7,375.3l130.2,84.6c269,180.1,574.9,492.5,770.2,789.7c618.3,935.1,692.1,2145.6,188.8,3145.7c-379.7,759.3-1011,1286.5-1779,1488.3C5353.6,5003.4,4852.5,5027.3,4642,4994.7z M5520.7,4584.7c230-60.8,574.9-225.6,759.3-366.7c175.7-134.5,420.9-390.5,542.4-568.4c338.4-496.8,514.2-1212.7,455.6-1846.2C7171.6,657.9,6503.4-205.5,5520.7-468c-175.7-45.5-253.8-54.2-520.7-54.2c-266.8,0-344.9,8.7-520.7,54.2c-379.7,102-679,269-963.2,540.2c-937.2,889.5-1078.2,2505.7-314.6,3612.2c128,184.4,431.7,483.8,611.8,603.1c247.3,162.7,598.8,299.4,893.8,344.9C4869.8,4658.5,5338.4,4630.3,5520.7,4584.7z M7492.7-1659.1c913.3-496.8,1703-930.7,1755.1-967.6c121.5-80.3,214.8-210.4,256-355.8c26-91.1,32.5-214.8,26-640c-6.5-509.8-8.7-529.3-58.6-609.6c-26-45.6-91.1-104.1-141-130.2l-88.9-47.7H5000H758.7l-89,47.7c-49.9,26-115,84.6-141,130.2c-49.9,80.3-52.1,99.8-58.6,609.6c-8.7,585.8,6.5,681.2,125.8,846.1c34.7,49.9,117.2,123.7,177.9,164.9c62.9,41.2,861.3,470.8,1770.3,956.7l1657.5,883l175.7-45.6c470.8-119.3,958.9-108.5,1327.7,28.2c47.7,17.4,95.5,32.5,106.3,32.5C5822.2-754.4,6577.2-1160.1,7492.7-1659.1z"/></g></g>
</svg>